# AST/ASF file generated using VICON BodyLanguage
# -----------------------------------------------
:version 1.10
:name VICON
:units
  mass 1.0
  length 0.45
  angle deg
:documentation
   .ast/.asf automatically generated from VICON data using
   VICON BodyBuilder and BodyLanguage model FoxedUp or BRILLIANT.MOD
:root
   order TX TY TZ RX RY RZ
   axis XYZ
   position 0 0 0  
   orientation 0 0 0 
:bonedata
  begin
     id 1 
     name lhipjoint
     direction 0.822369 -0.411937 0.392449 
     length 3.8167 
     axis 0 0 0  XYZ
  end
  begin
     id 2 
     name lfemur
     direction 0.34202 -0.939693 0  
     length 6.16791  
     axis 0 0 20  XYZ
    dof rx ry rz
    limits (-160.0 20.0)
           (-70.0 70.0)
           (-60.0 70.0)
  end
  begin
     id 3 
     name ltibia
     direction 0.34202 -0.939693 0   
     length 7.07101   
     axis 0 0 20   XYZ
    dof rx
    limits (-10.0 170.0)
  end
  begin
     id 4 
     name lfoot
     direction 0.028254 -0.0776273 0.996582   
     length 1.66799   
     axis -90 7.62852e-016 20   XYZ
    dof rx rz
    limits (-45.0 90.0)
           (-70.0 20.0)
  end
  begin
     id 5 
     name ltoes
     direction 1.53483e-011 -4.21688e-011 1   
     length 0.851674   
     axis -90 7.62852e-016 20   XYZ
    dof rx
    limits (-90.0 20.0)
  end
  begin
     id 6 
     name rhipjoint
     direction -0.822466 -0.411836 0.392353   
     length 3.81764  
     axis 0 0 0  XYZ 
  end
  begin
     id 7 
     name rfemur
     direction -0.34202 -0.939693 0   
     length 6.28636   
     axis 0 0 -20   XYZ
    dof rx ry rz
    limits (-160.0 20.0)
           (-70.0 70.0)
           (-70.0 60.0)
  end
  begin
     id 8 
     name rtibia
     direction -0.34202 -0.939693 0   
     length 6.85621   
     axis 0 0 -20   XYZ
    dof rx
    limits (-10.0 170.0)
 end
 begin
     id 9 
     name rfoot
     direction -0.0553036 -0.151945 0.98684   
     length 1.57293  
     axis -90 -7.62852e-016 -20   XYZ
    dof rx rz
    limits (-45.0 90.0)
           (-20.0 70.0)
  end
  begin
     id 10 
     name rtoes
     direction -1.53592e-011 -4.21964e-011 1   
     length 0.802812   
     axis -90 -7.62852e-016 -20   XYZ
    dof rx
    limits (-90.0 20.0)
  end
  begin
     id 11 
     name lowerback
     direction 0.00654913 0.996475 -0.0836396   
     length 1.97212   
     axis 0 0 0   XYZ
    dof rx ry rz
    limits (-20.0 45.0)
           (-30.0 30.0)
           (-30.0 30.0)
  end
  begin
     id 12 
     name upperback
     direction 0.0111875 0.994527 0.103877   
     length 1.89704   
     axis 0 0 0   XYZ
    dof rx ry rz
    limits (-20.0 45.0)
           (-30.0 30.0)
           (-30.0 30.0)
  end
  begin
     id 13 
     name thorax
     direction 0.00473652 0.989004 0.147814   
     length 1.94516   
     axis 0 0 0   XYZ
    dof rx ry rz
    limits (-20.0 45.0)
           (-30.0 30.0)
           (-30.0 30.0)
  end
  begin
     id 14 
     name lowerneck
     direction -0.00925808 0.999011 0.0434791   
     length 1.81771   
     axis 0 0 0   XYZ
    dof rx ry rz
    limits (-20.0 45.0)
           (-30.0 30.0)
           (-30.0 30.0)
  end
  begin
     id 15 
     name upperneck
     direction 0.00451595 0.964412 -0.264365   
     length 1.80434   
     axis 0 0 0   XYZ
    dof rx ry rz
    limits (-20.0 45.0)
           (-30.0 30.0)
           (-30.0 30.0)
  end
  begin
     id 16
     name head
     direction -0.00110849 0.995756 -0.0920241  
     length 1.84006  
     axis 0 0 0   XYZ
    dof rx ry rz
    limits (-20.0 45.0)
           (-30.0 30.0)
           (-30.0 30.0)
  end
  begin
     id 17 
     name lclavicle
     direction 0.921253 0.385213 0.0538957  
     length 3.67415  
     axis 0 0 0   XYZ
    dof ry rz
    limits (-20.0 10.0)
           (0.0 20.0)
  end
  begin
     id 18 
     name lhumerus
     direction 1 -4.48961e-011 6.73441e-028   
     length 4.32712   
     axis 180 -30 -90   XYZ
    dof rx ry rz
    limits (-60.0 90.0)
           (-90.0 90.0)
           (-90.0 90.0)
  end
  begin
     id 19
     name lradius
     direction 1 -4.48985e-011 -9.53507e-028   
     length 3.28587   
     axis 180 -30 -90   XYZ
    dof rx
    limits (-10.0 170.0)
  end
  begin
     id 20
     name lwrist
     direction 1 -4.48951e-011 -4.67472e-027   
     length 1.64293   
     axis 1.65735e-015 90 90   XYZ
    dof ry
    limits (-180.0 0.0)
 end
  begin
     id 21 
     name lhand
     direction 1 -4.48946e-011 -9.34945e-027   
     length 0.433158   
     axis 5.96574e-015 90 90   XYZ
    dof rx rz
    limits (-90.0 90.0)
           (-45.0 45.0)
  end
  begin
     id 22 
     name lfingers
     direction 1 -4.48882e-011 -1.86989e-026   
     length 0.349224   
     axis 1.19315e-014 90 90   XYZ
    dof rx
    limits (0.0 90.0)
  end
  begin
     id 23
     name lthumb
     direction 0.707107 -6.3493e-011 0.707107   
     length 0.501417   
     axis -90 45 2.85299e-015   XYZ
    dof rx rz
    limits (-45.0 45.0)
           (-45.0 45.0)
  end
  begin
     id 24 
     name rclavicle
     direction -0.884378 0.46502 -0.0403866   
     length 3.50218  
     axis 0 0 0   XYZ 
    dof ry rz
    limits (-10.0 20.0)
           (-20.0 0.0)
  end
  begin
     id 25 
     name rhumerus
     direction -1 -4.48964e-011 1.58188e-027  
     length 4.29104   
     axis 180 30 90   XYZ
    dof rx ry rz
    limits (-90.0 60.0)
           (-90.0 90.0)
           (-90.0 90.0)
  end
  begin
     id 26 
     name rradius
     direction -1 -4.48978e-011 -1.9722e-027   
     length 3.2272   
     axis 180 30 90   XYZ
    dof rx
    limits (-10.0 170.0)
  end
  begin
     id 27 
     name rwrist
     direction -1 -4.48969e-011 -4.67472e-027   
     length 1.6136   
     axis 1.65735e-015 -90 -90   XYZ
    dof ry
    limits (-180.0 0.0)
  end
  begin
     id 28
     name rhand
     direction -1 -4.48846e-011 -9.34945e-027   
     length 0.543623   
     axis 5.96574e-015 -90 -90   XYZ
    dof rx rz
    limits (-90.0 90.0)
           (-45.0 45.0)
  end
  begin
     id 29
     name rfingers
     direction -1 -4.49074e-011 -1.86989e-026   
     length 0.438283   
     axis 1.19315e-014 -90 -90   XYZ
    dof rx
    limits (0.0 90.0)
  end
  begin
     id 30
     name rthumb
     direction -0.707107 -6.34834e-011 0.707107   
     length 0.629289   
     axis -90 -45 -2.85299e-015   XYZ
    dof rx rz
    limits (-45.0 45.0)
           (-45.0 45.0)
  end
:hierarchy
  begin
    root lhipjoint rhipjoint lowerback
    lhipjoint lfemur
    lfemur ltibia
    ltibia lfoot
    lfoot ltoes
    rhipjoint rfemur
    rfemur rtibia
    rtibia rfoot
    rfoot rtoes
    lowerback upperback
    upperback thorax
    thorax lowerneck lclavicle rclavicle
    lowerneck upperneck
    upperneck head
    lclavicle lhumerus
    lhumerus lradius
    lradius lwrist
    lwrist lhand lthumb
    lhand lfingers
    rclavicle rhumerus
    rhumerus rradius
    rradius rwrist
    rwrist rhand rthumb
    rhand rfingers
  end

#!OML:ASF H:\GeneralSubjects\Female5\Project 1\Capture day 1\Session 1\Female5.ASF
:FULLY-SPECIFIED
:DEGREES
52
root -36.971 16.3764 5.47638 -64.5413 87.7246 -87.0525
lowerback 9.22016 2.0014 5.55025
upperback -8.0885 3.58177 -1.43255
thorax -13.7058 1.11888 -5.46474
lowerneck -18.7844 5.63955 6.95773
upperneck 38.9477 8.18676 -0.90904
head 18.0074 4.70402 0.210014
rclavicle 7.19352e-015 -2.09718e-014
rhumerus -73.1641 7.66262 -82.2639
rradius 28.718
rwrist -4.69452
rhand -21.4813 -18.8868
rfingers 7.12502
rthumb 4.90961 -48.81
lclavicle 7.19352e-015 -2.09718e-014
lhumerus -70.2169 -3.89927 47.7848
lradius 23.6434
lwrist -21.6888
lhand -30.3185 30.3595
lfingers 7.12502
lthumb -3.62505 60.3084
rfemur -12.4541 27.1092 28.9037
rtibia -3.49441
rfoot 0.884241 -33.516
rtoes -54.2049
lfemur -19.7201 -23.3473 -20.7803
ltibia 9.0644
lfoot -27.5076 -3.40039
ltoes -27.1661
53
root -36.9311 16.3694 5.47403 -60.9083 87.7652 -84.2099
lowerback 9.73631 1.87314 5.58776
upperback -8.09098 3.4354 -1.47436
thorax -14.05 1.0222 -5.53888
lowerneck -18.8598 5.77295 6.80424
upperneck 38.5022 8.33549 -0.88005
head 17.77 4.72096 0.264124
rclavicle -1.19892e-014 -3.72721e-014
rhumerus -75.0118 7.263 -81.521
rradius 27.6145
rwrist -3.82715
rhand -20.3267 -19.4951
rfingers 7.12502
rthumb 6.02444 -49.3894
lclavicle -1.19892e-014 -3.72721e-014
lhumerus -71.7643 -3.41896 44.328
lradius 22.7859
lwrist -22.3701
lhand -30.4696 31.8821
lfingers 7.12502
lthumb -3.77097 61.8285
rfemur -14.7372 22.3854 29.1072
rtibia -1.00821
rfoot -2.68598 -29.3236
rtoes -52.6419
lfemur -22.0216 -21.2462 -20.8197
ltibia 11.8446
lfoot -25.8561 -4.96126
ltoes -27.5836
54
root -36.8943 16.3518 5.47202 -56.9106 87.7874 -81.0152
lowerback 10.3138 1.74942 5.61106
upperback -8.10533 3.2986 -1.50597
thorax -14.4492 0.928956 -5.59843
lowerneck -18.9538 5.89259 6.66601
upperneck 38.0303 8.45731 -0.868512
head 17.5275 4.72728 0.301627
rclavicle -8.19987e-015 -2.75814e-014
rhumerus -76.5194 6.83867 -80.7174
rradius 26.5816
rwrist -3.20375
rhand -19.1676 -20.0899
rfingers 7.12502
rthumb 7.1434 -49.9493
lclavicle -8.19987e-015 -2.75814e-014
lhumerus -73.0442 -2.89755 41.0518
lradius 21.9949
lwrist -22.8534
lhand -30.4397 33.4358
lfingers 7.12502
lthumb -3.7421 63.3827
rfemur -17.3036 18.6907 29.321
rtibia 2.1136
rfoot -6.92791 -25.6361
rtoes -48.7315
lfemur -24.4924 -19.1238 -20.9261
ltibia 14.9483
lfoot -24.2161 -6.3961
ltoes -28.3196
55
root -36.86 16.3194 5.47072 -52.5449 87.7969 -77.4368
lowerback 10.9421 1.63608 5.60983
upperback -8.11238 3.17525 -1.52654
thorax -14.8736 0.843765 -5.63549
lowerneck -19.1069 5.97969 6.54497
upperneck 37.5505 8.52845 -0.892257
head 17.3007 4.71021 0.311953
rclavicle 3.83157e-014 4.49253e-014
rhumerus -77.5989 6.38283 -79.8961
rradius 25.5846
rwrist -2.81357
rhand -18.2259 -20.3669
rfingers 7.12502
rthumb 8.05235 -50.1935
lclavicle 3.83157e-014 4.49253e-014
lhumerus -73.9859 -2.25002 38.0554
lradius 21.2286
lwrist -23.3898
lhand -30.2675 34.8867
lfingers 7.12502
lthumb -3.57574 64.8365
rfemur -20.0237 16.051 29.4941
rtibia 5.66061
rfoot -10.3053 -22.525
rtoes -43.9429
lfemur -27.0952 -17.0099 -21.1409
ltibia 18.39
lfoot -22.6129 -7.69442
ltoes -29.3571
56
root -36.8272 16.2677 5.47062 -47.8613 87.8025 -73.4907
lowerback 11.6193 1.53792 5.57687
upperback -8.098 3.06885 -1.53653
thorax -15.3044 0.770192 -5.64637
lowerneck -19.3464 6.0233 6.4288
upperneck 37.0978 8.54234 -0.955109
head 17.1137 4.66464 0.297036
rclavicle -2.53823e-014 -1.78906e-014
rhumerus -78.1892 5.88713 -79.098
rradius 24.6026
rwrist -2.51898
rhand -17.5436 -20.554
rfingers 7.12502
rthumb 8.71081 -50.3543
lclavicle -2.53823e-014 -1.78906e-014
lhumerus -74.5726 -1.40986 35.4853
lradius 20.4863
lwrist -24.1381
lhand -30.053 36.1111
lfingers 7.12502
lthumb -3.36861 66.0642
rfemur -22.7459 14.366 29.5912
rtibia 9.39375
rfoot -13.2213 -19.9525
rtoes -38.0604
lfemur -29.7637 -15.0618 -21.4412
ltibia 22.0874
lfoot -21.1624 -8.76358
ltoes -30.5392
57
root -36.7954 16.1928 5.47245 -43.0617 87.8146 -69.3529
lowerback 12.3433 1.45992 5.48828
upperback -8.05965 2.98223 -1.52501
thorax -15.7376 0.713455 -5.60561
lowerneck -19.6766 6.02882 6.27612
upperneck 36.7247 8.52143 -1.02699
head 16.9904 4.59919 0.28393
rclavicle 3.72721e-016 -7.45443e-016
rhumerus -78.2684 5.36603 -78.41
rradius 23.6684
rwrist -2.24877
rhand -17.1729 -20.5023
rfingers 7.12502
rthumb 9.06854 -50.2874
lclavicle 3.72721e-016 -7.45443e-016
lhumerus -74.7935 -0.227048 33.2781
lradius 19.7649
lwrist -25.277
lhand -29.7832 37.0561
lfingers 7.12502
lthumb -3.10805 67.0132
rfemur -25.3365 13.4958 29.5974
rtibia 13.0965
rfoot -15.9796 -17.7823
rtoes -30.8546
lfemur -32.4829 -13.3086 -21.8231
ltibia 26.0429
lfoot -19.8498 -9.54389
ltoes -31.7518
58
root -36.7643 16.0922 5.47652 -38.6321 87.8355 -65.5029
lowerback 13.1003 1.40349 5.3434
upperback -8.0067 2.91765 -1.48123
thorax -16.1757 0.675897 -5.5008
lowerneck -20.0781 6.0112 6.04455
upperneck 36.4736 8.49646 -1.05888
head 16.9419 4.52898 0.307956
rclavicle 5.57218e-015 -1.64246e-014
rhumerus -77.8468 4.85186 -77.9415
rradius 22.8357
rwrist -1.91058
rhand -16.9762 -20.5018
rfingers 7.12502
rthumb 9.25831 -50.2785
lclavicle 5.57218e-015 -1.64246e-014
lhumerus -74.7188 1.26188 31.6629
lradius 19.153
lwrist -26.6137
lhand -29.5194 37.7495
lfingers 7.12502
lthumb -2.85337 67.7101
rfemur -27.7194 13.302 29.5265
rtibia 16.6339
rfoot -18.7655 -15.8059
rtoes -22.176
lfemur -35.2445 -11.7927 -22.2429
ltibia 30.2193
lfoot -18.6656 -10.0359
ltoes -32.8489
59
root -36.734 15.9661 5.48207 -35.4452 87.8586 -62.8357
lowerback 13.8435 1.36261 5.1865
upperback -7.95394 2.87419 -1.40421
thorax -16.6055 0.653534 -5.35377
lowerneck -20.5413 5.97123 5.75079
upperneck 36.3622 8.46606 -1.04766
head 16.9749 4.45654 0.367226
rclavicle -2.40739e-014 -2.05649e-014
rhumerus -76.9558 4.41591 -77.873
rradius 22.1991
rwrist -1.5734
rhand -16.9255 -20.6097
rfingers 7.12502
rthumb 9.30725 -50.3843
lclavicle -2.40739e-014 -2.05649e-014
lhumerus -74.3683 2.9497 30.9189
lradius 18.7211
lwrist -27.7953
lhand -29.3757 38.1505
lfingers 7.12502
lthumb -2.71453 68.113
rfemur -29.9112 13.6039 29.4254
rtibia 19.9791
rfoot -21.5904 -13.7644
rtoes -12.1497
lfemur -38.067 -10.5494 -22.6228
ltibia 34.5493
lfoot -17.589 -10.2522
ltoes -33.7431
60
root -36.7031 15.8182 5.4876 -34.1836 87.8832 -62.0723
lowerback 14.506 1.32649 5.06729
upperback -7.9176 2.84505 -1.30159
thorax -17.0029 0.638642 -5.1968
lowerneck -21.0476 5.91248 5.4399
upperneck 36.3628 8.42616 -1.01875
head 17.0751 4.38214 0.440535
rclavicle -2.50717e-014 -1.82882e-014
rhumerus -75.6335 4.18746 -78.4121
rradius 21.8362
rwrist -1.39314
rhand -16.9543 -20.8023
rfingers 7.12502
rthumb 9.27946 -50.5781
lclavicle -2.50717e-014 -1.82882e-014
lhumerus -73.6969 4.60627 31.464
lradius 18.5528
lwrist -28.2309
lhand -29.3393 38.3798
lfingers 7.12502
lthumb -2.67944 68.3427
rfemur -31.9911 14.1858 29.3358
rtibia 23.1869
rfoot -24.3188 -11.4335
rtoes -1.3088
lfemur -40.9576 -9.6078 -22.8999
ltibia 38.9233
lfoot -16.5958 -10.2446
ltoes -34.4385
61
root -36.6695 15.6548 5.49102 -35.0868 87.9046 -63.4726
lowerback 15.0351 1.2869 5.02984
upperback -7.90198 2.82613 -1.18565
thorax -17.3375 0.62476 -5.06548
lowerneck -21.5759 5.84518 5.15031
upperneck 36.4177 8.38332 -1.00593
head 17.2126 4.30784 0.505256
rclavicle -1.67725e-014 2.28105e-014
rhumerus -73.9196 4.34188 -79.7118
rradius 21.7963
rwrist -1.51586
rhand -17.0728 -20.9062
rfingers 7.12502
rthumb 9.16512 -50.687
lclavicle -1.67725e-014 2.28105e-014
lhumerus -72.5562 6.04848 33.5071
lradius 18.6409
lwrist -27.6223
lhand -29.4361 38.3279
lfingers 7.12502
lthumb -2.77291 68.2896
rfemur -34.041 14.8202 29.2931
rtibia 26.3627
rfoot -26.7341 -8.69413
rtoes 9.36059
lfemur -43.8621 -8.99053 -23.034
ltibia 43.234
lfoot -15.6891 -10.2426
ltoes -34.9761
62
root -36.6306 15.484 5.49089 -37.7327 87.9151 -66.6052
lowerback 15.3844 1.18119 4.75952
upperback -7.88174 2.68975 -0.841636
thorax -17.5826 0.611859 -4.49059
lowerneck -22.0839 5.88732 4.88376
upperneck 36.4432 8.58115 -1.19428
head 17.3554 4.3021 0.526618
rclavicle -1.49089e-015 -1.40143e-014
rhumerus -71.7909 5.62319 -81.885
rradius 22.1638
rwrist -2.1895
rhand -17.1581 -21.1202
rfingers 7.12502
rthumb 9.08281 -50.9046
lclavicle -1.49089e-015 -1.40143e-014
lhumerus -71.1492 7.4858 36.9824
lradius 18.9528
lwrist -26.0336
lhand -29.4961 38.0822
lfingers 7.12502
lthumb -2.83085 68.0432
rfemur -36.0979 15.3003 29.3207
rtibia 29.5994
rfoot -27.7939 -8.95618
rtoes 7.51224
lfemur -46.6096 -8.67206 -23.0222
ltibia 47.2666
lfoot -14.8575 -10.3313
ltoes -35.4101
63
root -36.5846 15.3139 5.48717 -40.8576 87.9192 -70.1658
lowerback 15.6171 1.07448 4.52298
upperback -7.85362 2.55349 -0.498118
thorax -17.7384 0.601529 -3.92689
lowerneck -22.6115 5.92987 4.60127
upperneck 36.3938 8.7727 -1.37217
head 17.4613 4.29125 0.552371
rclavicle -8.59744e-015 -3.37934e-015
rhumerus -69.4029 7.6999 -84.7473
rradius 22.9769
rwrist -3.22643
rhand -17.2591 -21.3113
rfingers 7.12502
rthumb 8.98532 -51.0999
lclavicle -8.59744e-015 -3.37934e-015
lhumerus -68.9145 8.34798 41.9935
lradius 19.5314
lwrist -23.2946
lhand -29.3691 37.6584
lfingers 7.12502
lthumb -2.70819 67.6209
rfemur -38.1266 15.4838 29.419
rtibia 32.9212
rfoot -28.5098 -9.16979
rtoes 5.12189
lfemur -49.021 -8.51668 -22.9807
ltibia 50.91
lfoot -14.092 -10.646
ltoes -35.6407
64
root -36.5303 15.1514 5.4805 -42.9419 87.9357 -72.5703
lowerback 15.802 0.982544 4.26613
upperback -7.8103 2.42613 -0.17407
thorax -17.84 0.599445 -3.37295
lowerneck -23.1419 5.96136 4.28701
upperneck 36.2561 8.94335 -1.53129
head 17.5159 4.26984 0.584719
rclavicle -4.57205e-015 -6.36111e-015
rhumerus -66.8394 10.6067 -87.9167
rradius 24.2366
rwrist -4.24264
rhand -17.468 -21.5305
rfingers 7.12502
rthumb 8.78376 -51.3277
lclavicle -4.57205e-015 -6.36111e-015
lhumerus -65.8011 8.38151 48.2664
lradius 20.4831
lwrist -19.7502
lhand -28.9518 37.0808
lfingers 7.12502
lthumb -2.30517 67.0481
rfemur -40.0109 15.2952 29.5843
rtibia 36.2558
rfoot -28.8725 -9.22602
rtoes 2.47871
lfemur -50.8811 -8.42621 -23.0018
ltibia 53.9945
lfoot -13.4324 -11.2194
ltoes -35.6713
65
root -36.4675 15.0014 5.47206 -42.9462 87.9835 -72.7214
lowerback 16.0001 0.924194 3.94678
upperback -7.75556 2.32352 0.114509
thorax -17.9316 0.613649 -2.83169
lowerneck -23.6505 5.94994 3.97309
upperneck 36.0457 9.05742 -1.72276
head 17.5262 4.22267 0.587375
rclavicle 6.65929e-015 -1.47101e-014
rhumerus -64.1784 14.2779 -90.9883
rradius 25.998
rwrist -4.96851
rhand -17.6511 -21.4417
rfingers 7.12502
rthumb 8.60705 -51.2462
lclavicle 6.65929e-015 -1.47101e-014
lhumerus -61.9665 7.3316 55.3004
lradius 22.0698
lwrist -15.794
lhand -28.2176 36.4019
lfingers 7.12502
lthumb -1.59604 66.3756
rfemur -41.5954 14.748 29.8056
rtibia 39.4577
rfoot -28.9602 -9.14576
rtoes -0.41232
lfemur -52.0345 -8.2917 -23.1883
ltibia 56.4093
lfoot -12.9165 -11.9715
ltoes -35.5812
66
root -36.3962 14.8671 5.46303 -40.5952 88.053 -70.3195
lowerback 16.235 0.910413 3.55904
upperback -7.711 2.26109 0.366971
thorax -18.0564 0.650173 -2.30675
lowerneck -24.1263 5.8812 3.6376
upperneck 35.8269 9.09554 -1.90053
head 17.5186 4.14724 0.581812
rclavicle -3.8763e-015 2.62396e-014
rhumerus -61.3802 18.3882 -93.3389
rradius 28.3235
rwrist -4.86293
rhand -17.9048 -21.1508
rfingers 7.12502
rthumb 8.36221 -50.9653
lclavicle -3.8763e-015 2.62396e-014
lhumerus -57.7916 5.06154 62.4208
lradius 24.6719
lwrist -11.7821
lhand -27.3291 35.8977
lfingers 7.12502
lthumb -0.737947 65.8762
rfemur -42.7583 13.9417 30.0677
rtibia 42.3863
rfoot -28.9184 -8.93776
rtoes -3.35058
lfemur -52.4662 -8.04705 -23.5695
ltibia 58.1765
lfoot -12.5588 -12.7194
ltoes -35.402
